<svg xmlns="http://www.w3.org/2000/svg" viewBox="0 0 560 560" preserveAspectRatio="xMidYMid meet">
  <!-- No background - Megazone Cloud Triquetra Logo -->
  
  <!-- Top lobe (pointing up) -->
  <path d="M 280 20 
           C 380 40, 440 100, 460 180
           C 475 240, 450 320, 380 380
           C 340 410, 290 420, 280 420
           C 270 420, 220 410, 180 380
           C 110 320, 85 240, 100 180
           C 120 100, 180 40, 280 20
           M 280 100
           C 330 110, 370 150, 380 210
           C 385 250, 370 290, 340 320
           C 310 340, 280 345, 280 345
           C 280 345, 250 340, 220 320
           C 190 290, 175 250, 180 210
           C 190 150, 230 110, 280 100 Z" fill="black" fill-rule="evenodd"/>
  
  <!-- Bottom-left lobe -->
  <path d="M 80 340
           C 20 360, 0 440, 40 500
           C 80 540, 160 540, 220 480
           C 250 450, 260 400, 250 350
           C 240 310, 200 280, 140 280
           C 110 280, 90 300, 80 340
           M 140 330
           C 170 335, 200 350, 210 380
           C 215 410, 200 440, 160 470
           C 130 490, 90 490, 70 460
           C 55 440, 60 410, 85 390
           C 110 365, 130 330, 140 330 Z" fill="black" fill-rule="evenodd"/>
  
  <!-- Bottom-right lobe -->
  <path d="M 480 340
           C 540 360, 560 440, 520 500
           C 480 540, 400 540, 340 480
           C 310 450, 300 400, 310 350
           C 320 310, 360 280, 420 280
           C 450 280, 470 300, 480 340
           M 420 330
           C 390 335, 360 350, 350 380
           C 345 410, 360 440, 400 470
           C 430 490, 470 490, 490 460
           C 505 440, 500 410, 475 390
           C 450 365, 430 330, 420 330 Z" fill="black" fill-rule="evenodd"/>
  
  <!-- White interlocking areas for weaving effect -->
  <ellipse cx="280" cy="180" rx="55" ry="70" fill="white"/>
  <path d="M 200 320 Q 150 310 130 370 Q 140 400 180 410 Q 200 360 220 320 Z" fill="white"/>
  <path d="M 360 320 Q 410 310 430 370 Q 420 400 380 410 Q 360 360 340 320 Z" fill="white"/>
</svg>